<?xml version="1.0" standalone="no"?>
<!DOCTYPE svg PUBLIC "-//W3C//DTD SVG 20010904//EN"
 "http://www.w3.org/TR/2001/REC-SVG-20010904/DTD/svg10.dtd">
<svg version="1.0" xmlns="http://www.w3.org/2000/svg"
 width="300.000000pt" height="300.000000pt" viewBox="0 0 300.000000 300.000000"
 preserveAspectRatio="xMidYMid meet">
<metadata>
Created by potrace 1.14, written by Peter Selinger 2001-2017
</metadata>
<g transform="translate(0.000000,300.000000) scale(0.100000,-0.100000)"
fill="#000000" stroke="none">
<path d="M2941 2571 c10 -21 9 -23 -5 -18 -8 3 -18 1 -22 -5 -4 -6 -3 -8 4 -4
5 3 12 1 14 -5 2 -7 8 -6 16 3 9 12 8 19 -4 34 -14 18 -14 18 -3 -5z"/>
<path d="M2970 2566 c-14 -38 -56 -57 -67 -30 -4 11 -7 11 -20 -1 -8 -9 -19
-13 -24 -10 -5 4 -9 1 -9 -4 0 -6 10 -10 23 -8 14 1 22 -3 22 -13 0 -9 -10
-15 -22 -16 -13 -1 -23 3 -23 7 0 5 -4 9 -9 9 -6 0 -4 -12 4 -26 7 -15 11 -33
8 -42 -5 -11 -3 -13 7 -7 9 6 11 4 6 -4 -5 -7 -11 -10 -14 -7 -3 3 -12 0 -20
-7 -10 -8 -13 -8 -9 -1 4 7 0 15 -9 18 -8 3 -12 11 -8 17 5 8 3 9 -5 4 -9 -5
-10 -10 -2 -18 14 -14 14 -37 1 -37 -5 0 -10 8 -11 18 0 13 -2 12 -9 -6 -5
-12 -7 -29 -4 -37 8 -19 -1 -19 -32 1 -13 9 -27 14 -31 10 -3 -3 -1 -6 6 -6 7
0 9 -5 6 -10 -4 -6 -11 -7 -17 -4 -7 4 -8 2 -4 -5 6 -8 11 -9 20 -2 10 8 18 5
32 -12 l19 -22 -21 18 c-21 18 -22 18 -35 0 -8 -10 -21 -24 -30 -30 -13 -10
-16 -10 -16 2 0 8 5 11 10 8 6 -3 7 -1 3 6 -6 9 -11 9 -23 -1 -13 -11 -11 -16
18 -41 24 -21 27 -26 10 -17 -21 11 -23 10 -18 -4 3 -8 2 -18 -4 -21 -5 -4 -9
-3 -8 2 4 22 -3 33 -18 33 -15 0 -16 -2 -3 -10 8 -5 11 -12 7 -16 -3 -4 -14
-1 -22 6 -11 9 -19 10 -26 3 -8 -8 -7 -13 2 -18 8 -6 10 -4 4 5 -5 8 -3 11 5
8 8 -2 14 -14 15 -26 1 -17 -1 -19 -12 -11 -10 9 -13 8 -13 -5 0 -9 -5 -16
-11 -16 -6 0 -8 9 -4 23 5 17 4 19 -4 7 -9 -13 -11 -13 -11 -1 0 8 -10 1 -22
-16 -23 -30 -27 -33 -50 -33 -9 0 -8 -3 2 -10 16 -10 22 -58 7 -67 -6 -4 -7
-1 -2 7 6 10 3 12 -11 7 -18 -7 -18 -7 0 8 24 18 14 20 -13 3 -18 -11 -18 -13
-3 -26 16 -13 16 -13 0 -8 -11 3 -18 0 -18 -8 0 -9 8 -13 23 -10 20 4 20 4 2
-4 -11 -5 -29 -7 -40 -4 -11 3 -14 7 -7 10 15 5 16 32 1 32 -5 0 -7 -5 -4 -10
3 -6 -1 -13 -9 -16 -12 -5 -13 -9 -3 -19 7 -7 15 -11 19 -9 4 2 9 0 12 -5 7
-11 -13 -9 -33 3 -17 11 -34 -14 -20 -30 7 -8 6 -15 -2 -20 -8 -4 -9 -3 -5 4
4 7 2 12 -4 12 -7 0 -9 8 -5 21 5 16 3 20 -6 17 -16 -5 -19 -28 -7 -44 4 -6 2
-11 -7 -11 -8 0 -12 3 -10 7 2 3 -1 12 -6 20 -7 11 -8 8 -5 -10 3 -14 5 -29 5
-33 1 -5 7 -5 14 -1 7 5 6 1 -3 -10 -8 -10 -15 -29 -16 -42 0 -13 -4 -28 -8
-32 -5 -4 -6 2 -4 12 1 10 -3 21 -10 23 -7 3 -11 -1 -10 -7 2 -7 -10 -14 -25
-17 -19 -2 -26 0 -22 7 3 6 10 8 15 5 4 -3 13 2 20 11 10 12 11 17 1 27 -7 7
-12 8 -11 2 4 -21 0 -36 -9 -30 -5 3 -13 1 -16 -5 -5 -8 -12 -7 -23 2 -16 12
-16 11 -2 -6 14 -18 13 -19 -3 -13 -12 5 -16 3 -11 -5 5 -7 2 -9 -9 -5 -11 4
-14 2 -10 -9 4 -11 9 -12 16 -5 15 15 24 14 30 -3 4 -10 1 -13 -9 -9 -16 6
-57 -25 -49 -37 2 -4 -2 -7 -10 -7 -12 0 -12 3 -3 16 7 9 2 7 -11 -4 -13 -11
-25 -18 -28 -17 -3 2 -8 0 -11 -4 -4 -4 -1 -4 6 0 6 4 12 3 12 -3 0 -5 -3 -11
-7 -14 -5 -2 -3 -2 4 -1 6 2 14 -4 18 -13 7 -21 -10 -39 -20 -22 -5 8 -4 10 3
5 7 -4 12 -3 12 3 0 5 -9 9 -19 8 -11 0 -17 -7 -14 -14 3 -8 -2 -11 -16 -8
-12 2 -21 -1 -21 -6 0 -6 -4 -7 -10 -4 -6 3 -10 1 -10 -5 0 -6 -4 -8 -10 -5
-6 3 -7 -1 -4 -9 3 -9 1 -16 -4 -16 -6 0 -13 8 -16 18 -3 9 -4 5 -2 -10 2 -19
-1 -28 -11 -28 -8 0 -12 4 -9 8 3 5 -1 9 -9 9 -18 0 -20 -13 -2 -21 8 -3 4
-11 -12 -26 -13 -11 -21 -23 -18 -26 3 -4 18 7 32 22 l27 29 -23 -34 c-18 -27
-19 -35 -8 -42 23 -14 0 -10 -34 7 l-32 15 28 -25 c29 -27 28 -33 -3 -16 -13
7 -21 6 -30 -5 -7 -8 -19 -15 -27 -15 -8 0 -11 -5 -8 -11 4 -6 14 -8 24 -4 12
5 13 4 4 -6 -10 -10 -16 -9 -28 1 -16 13 -15 15 2 28 10 8 12 12 4 10 -8 -2
-21 -14 -29 -27 -8 -12 -11 -21 -6 -19 8 3 14 -4 14 -17 0 -3 -10 -1 -21 6
-12 6 -19 7 -15 1 3 -5 -1 -13 -9 -16 -8 -3 -15 -9 -14 -13 3 -17 -1 -33 -8
-30 -5 1 -9 -1 -10 -6 -6 -16 -3 -27 8 -27 5 0 8 4 5 9 -3 5 1 12 9 15 12 4
13 2 6 -12 -5 -9 -9 -21 -9 -25 0 -5 -4 -12 -8 -15 -4 -4 -4 -1 0 6 5 8 1 11
-14 9 -24 -4 -42 -26 -33 -42 4 -5 -3 -2 -14 8 -17 14 -22 15 -31 4 -9 -10 -8
-17 1 -27 10 -12 9 -12 -4 -2 -9 6 -19 8 -24 4 -4 -4 -1 3 6 16 8 12 17 22 21
22 16 0 24 2 43 13 11 6 24 10 29 9 5 -2 4 4 -4 12 -7 9 -18 16 -24 16 -6 0
-5 -4 3 -9 10 -7 10 -10 1 -16 -7 -4 -16 -2 -20 5 -5 8 -9 7 -14 -5 -3 -9 -10
-14 -15 -10 -5 3 -12 -4 -16 -15 -4 -11 -11 -18 -16 -14 -5 3 -8 0 -7 -7 2 -6
-3 -14 -11 -17 -9 -3 -11 0 -6 9 5 8 4 10 0 6 -15 -13 -14 -35 1 -41 8 -3 13
-2 11 2 -2 8 7 12 26 12 7 0 5 -5 -5 -10 -10 -6 -15 -19 -13 -30 2 -11 0 -18
-5 -15 -4 3 -10 -1 -13 -7 -3 -10 -8 -10 -18 1 -12 12 -12 13 0 6 10 -6 12 -4
6 5 -6 9 -4 11 5 5 9 -6 11 -4 5 5 -6 9 -4 11 5 5 9 -6 11 -4 6 4 -5 7 -11 10
-14 7 -3 -3 -12 0 -21 7 -14 11 -14 10 -2 -5 11 -15 11 -19 -4 -24 -11 -5 -13
-9 -6 -14 15 -9 23 -50 9 -50 -5 0 -8 7 -5 15 8 20 -11 29 -28 15 -11 -9 -15
-9 -15 -1 0 6 -5 11 -10 11 -6 0 -2 -12 7 -27 10 -15 13 -24 7 -20 -13 8 -38
-16 -27 -26 3 -4 1 -7 -5 -7 -7 0 -10 10 -8 22 2 13 9 22 16 20 6 -1 9 2 5 8
-11 18 -23 11 -33 -19 -7 -21 -7 -32 1 -41 7 -6 -6 -2 -28 10 -22 12 -32 15
-23 8 12 -10 14 -18 7 -25 -8 -8 -7 -13 2 -18 8 -6 10 -4 4 5 -6 9 -4 11 5 5
9 -6 11 -4 5 6 -7 12 -5 12 6 1 12 -11 12 -14 -1 -22 -18 -11 -20 -31 -5 -43
6 -6 4 -7 -6 -4 -9 3 -30 -8 -49 -26 -19 -18 -31 -24 -28 -16 4 9 1 22 -5 28
-8 8 -8 11 1 11 7 0 12 -4 12 -10 0 -5 5 -10 11 -10 14 0 2 18 -22 30 -14 8
-19 8 -17 -1 2 -6 -3 -14 -9 -16 -7 -3 -13 3 -13 11 0 12 -7 15 -25 12 -13 -3
-27 0 -31 5 -3 5 -11 6 -17 3 -8 -5 -8 -3 0 6 10 11 9 18 -6 34 -11 12 -20 26
-21 31 -1 6 -9 9 -18 7 -14 -2 -15 -1 -2 7 10 7 19 6 31 -5 19 -17 29 -18 29
-2 0 6 -3 8 -7 5 -3 -4 -12 -2 -20 4 -10 9 -10 15 -2 25 7 9 8 14 1 14 -6 0
-12 -5 -14 -11 -2 -5 -10 -11 -18 -12 -8 -2 -22 -7 -30 -11 -8 -5 -12 -5 -8
-1 5 5 -7 21 -25 37 -17 16 -33 40 -34 54 -1 13 2 22 6 20 10 -7 7 32 -4 41
-4 5 -5 2 -1 -4 4 -8 1 -13 -9 -13 -13 0 -14 4 -5 23 11 21 11 21 -5 2 -14
-18 -14 -21 2 -32 9 -7 12 -13 6 -13 -7 0 -15 5 -18 10 -5 8 -12 7 -23 -2 -15
-12 -15 -11 0 11 13 18 14 28 6 41 -9 13 -14 15 -23 6 -7 -6 -10 -17 -8 -24 4
-10 8 -10 22 0 14 12 15 11 2 -5 -14 -18 -16 -18 -28 -2 -9 13 -9 23 -1 39 11
20 10 21 -9 3 -19 -16 -21 -17 -27 -1 -5 14 -9 14 -24 3 -9 -7 -14 -9 -9 -4 4
4 -3 20 -15 33 -13 14 -17 22 -10 18 6 -4 12 -2 12 3 0 6 -6 11 -14 11 -8 0
-17 9 -21 19 -4 13 -12 18 -23 14 -13 -4 -13 -2 3 10 16 13 17 17 6 31 -8 9
-16 14 -19 11 -3 -3 -14 3 -25 12 -19 17 -20 17 -8 -4 16 -32 14 -41 -5 -15
-11 16 -21 21 -36 16 -18 -5 -19 -4 -7 9 8 8 19 12 24 9 6 -3 2 4 -8 15 -9 11
-14 22 -11 26 3 3 -1 4 -10 3 -26 -4 -40 -22 -22 -29 9 -4 16 -2 16 4 0 6 5 7
11 3 18 -11 -12 -24 -32 -13 -16 8 -16 11 -2 40 12 24 18 28 25 18 8 -11 9
-11 5 1 -2 8 -8 15 -13 15 -23 2 -53 17 -58 30 -6 17 9 21 17 5 3 -6 4 -5 3 2
-1 7 -15 14 -29 15 -24 2 -26 0 -12 -13 19 -20 19 -19 -7 -21 -18 -2 -20 0 -8
7 14 9 7 15 -14 11 -5 -1 -1 11 9 26 16 24 16 26 2 14 -9 -7 -18 -11 -18 -7
-1 3 -2 11 -3 16 0 6 -5 10 -11 11 -18 1 -35 21 -28 33 3 6 0 5 -8 -2 -11 -11
-12 -14 -1 -21 8 -5 13 -12 13 -17 -1 -5 3 -9 8 -9 5 0 13 -3 17 -7 4 -5 0 -8
-10 -8 -9 0 -25 14 -34 31 -9 17 -25 40 -35 51 -16 20 -16 22 0 41 10 11 13
17 6 14 -6 -4 -14 -3 -18 3 -4 6 -11 8 -16 5 -5 -4 -14 4 -19 17 -10 22 -10
22 -6 1 2 -13 -2 -24 -11 -27 -8 -3 -11 -11 -7 -17 4 -8 3 -9 -5 -5 -7 5 -9
12 -3 19 10 13 12 46 3 45 -19 -2 -31 3 -27 11 3 5 -2 8 -11 7 -9 0 -18 6 -20
14 -4 12 -3 12 5 2 8 -11 10 -11 15 1 8 22 -3 28 -27 15 -19 -10 -20 -10 -7 5
7 10 10 17 5 17 -5 0 -2 5 6 11 13 9 13 10 -2 6 -24 -8 -30 4 -10 20 15 13 15
13 -5 4 -27 -13 -36 -14 -28 -2 12 20 -15 21 -35 1 -11 -11 -20 -15 -20 -9 0
8 -4 8 -14 -1 -13 -10 -13 -8 -3 14 10 21 13 23 19 8 5 -13 7 -14 7 -2 0 8 -4
22 -9 30 -7 11 -10 11 -10 2 0 -7 -4 -11 -9 -7 -6 3 -15 -3 -21 -12 -10 -16
-11 -16 -6 -1 5 16 -8 32 -26 33 -3 0 -10 4 -15 9 -5 5 -3 6 5 2 7 -4 12 -2
12 6 1 9 5 7 14 -4 15 -20 36 -24 36 -6 0 6 -3 8 -7 5 -8 -8 -33 11 -33 25 0
6 8 4 18 -3 15 -13 16 -12 3 3 -7 10 -17 15 -22 13 -11 -7 -30 30 -21 40 4 5
1 5 -6 1 -11 -6 -10 -13 3 -32 8 -13 12 -24 7 -24 -5 0 -14 12 -21 26 -9 21
-9 30 1 43 10 13 8 12 -8 -2 -20 -17 -22 -17 -45 2 -24 20 -24 20 -4 36 19 15
19 15 -6 4 -20 -8 -25 -16 -21 -33 3 -11 1 -18 -3 -14 -4 4 -8 21 -7 38 0 16
-4 30 -9 30 -5 0 -8 -3 -8 -7 3 -20 -2 -33 -13 -33 -6 0 -8 3 -5 7 4 3 -1 16
-10 27 -17 20 -17 20 0 7 12 -9 17 -10 17 -2 0 6 -7 14 -15 17 -9 4 -13 16
-11 35 2 16 0 26 -5 24 -4 -3 -10 -1 -14 5 -3 5 -1 10 4 10 6 0 11 5 11 11 0
8 -6 7 -16 -2 -15 -12 -16 -11 -10 7 4 14 2 21 -7 21 -8 0 -12 -7 -10 -17 3
-10 -1 -17 -10 -17 -9 0 -13 6 -10 14 4 9 0 11 -13 6 -11 -4 -15 -3 -10 5 4 7
-1 10 -14 7 -18 -3 -25 6 -21 28 1 5 -3 6 -8 2 -6 -3 -7 -13 -4 -22 4 -11 2
-14 -5 -9 -9 5 -12 -288 -12 -1189 l0 -1195 1500 0 1500 0 0 1275 c0 843 -3
1275 -10 1275 -5 0 -10 5 -10 11 0 5 4 8 8 5 5 -3 9 1 9 9 0 23 -17 17 -27 -9z
m16 -28 c4 -7 4 -10 -1 -6 -4 4 -15 2 -24 -5 -14 -11 -14 -10 -2 6 16 20 18
21 27 5z m-64 -23 c3 0 10 -4 15 -9 4 -5 3 -6 -4 -3 -6 4 -13 3 -15 -3 -2 -6
-9 -1 -16 11 -11 17 -11 20 0 13 7 -5 16 -9 20 -9z m-41 -62 c13 -16 12 -17
-3 -4 -17 13 -22 21 -14 21 2 0 10 -8 17 -17z m-37 -74 c3 -3 -7 -5 -23 -5
-16 1 -32 3 -35 6 -3 3 8 5 24 5 16 0 31 -3 34 -6z m-2794 -11 c0 -4 -5 -8
-11 -8 -5 0 -7 -4 -4 -10 3 -6 -1 -7 -9 -4 -26 10 -19 31 9 31 8 0 15 -4 15
-9z m12 -30 c-7 -7 -12 -8 -12 -2 0 14 12 26 19 19 2 -3 -1 -11 -7 -17z m67
-2 c10 -12 9 -14 -6 -11 -10 2 -22 4 -28 4 -5 1 -3 6 5 11 19 12 15 12 29 -4z
m2521 -116 c0 -5 -2 -10 -4 -10 -3 0 -8 5 -11 10 -3 6 -1 10 4 10 6 0 11 -4
11 -10z m-84 -19 c-3 -5 1 -14 9 -21 8 -7 15 -17 15 -23 0 -6 -7 -1 -16 11 -9
13 -20 19 -27 15 -7 -4 -6 0 2 10 14 18 26 24 17 8z m-2281 -49 c-3 -3 -11 0
-18 7 -9 10 -8 11 6 5 10 -3 15 -9 12 -12z m2259 2 c3 -8 0 -16 -7 -20 -7 -4
-9 -4 -5 1 4 4 0 13 -8 20 -15 11 -15 12 -1 12 9 0 18 -6 21 -13z m-2098 -113
c-3 -5 6 -17 20 -26 21 -14 24 -19 13 -26 -8 -5 -18 -9 -24 -9 -5 0 -3 5 5 10
13 9 13 11 0 20 -8 5 -19 11 -24 13 -9 3 0 27 10 27 3 0 3 -4 0 -9z m84 -116
c0 -1 -8 -5 -18 -7 -11 -3 -19 0 -19 7 0 7 8 10 19 7 10 -2 18 -6 18 -7z m24
-14 c3 -4 -4 -17 -17 -27 -18 -16 -19 -16 -8 -1 12 15 11 17 -5 18 -18 0 -18
1 1 9 11 5 21 9 22 9 1 1 4 -3 7 -8z m46 -31 c0 -5 -5 -10 -11 -10 -5 0 -7 5
-4 10 3 6 8 10 11 10 2 0 4 -4 4 -10z m25 0 c3 -5 1 -10 -4 -10 -6 0 -11 5
-11 10 0 6 2 10 4 10 3 0 8 -4 11 -10z m1695 4 c0 -8 -19 -13 -24 -6 -3 5 1 9
9 9 8 0 15 -2 15 -3z m-135 -84 c-3 -5 3 -14 12 -20 10 -6 12 -10 4 -8 -8 2
-21 14 -29 26 -13 20 -13 22 2 16 9 -3 14 -10 11 -14z m-1520 -40 c3 -5 1 -10
-4 -10 -6 0 -11 5 -11 10 0 6 2 10 4 10 3 0 8 -4 11 -10z m60 -20 c-3 -5 -12
-10 -18 -10 -7 0 -6 4 3 10 19 12 23 12 15 0z m1393 -1 c-2 -6 -7 -10 -12 -9
-5 1 -12 -4 -17 -11 -4 -8 -11 -10 -16 -6 -9 9 17 28 29 21 4 -3 8 0 8 5 0 6
3 11 6 11 3 0 4 -5 2 -11z m27 1 c3 -5 1 -10 -4 -10 -6 0 -11 5 -11 10 0 6 2
10 4 10 3 0 8 -4 11 -10z m-1462 -15 c-3 -9 -8 -14 -10 -11 -3 3 -2 9 2 15 9
16 15 13 8 -4z m134 -52 c-9 -2 -14 -9 -11 -15 4 -7 2 -8 -5 -4 -15 10 -4 26
17 25 15 -1 15 -2 -1 -6z m1133 -108 c0 -8 -2 -15 -4 -15 -2 0 -6 7 -10 15 -3
8 -1 15 4 15 6 0 10 -7 10 -15z m-999 -18 c-13 -13 -26 -3 -16 12 3 6 11 8 17
5 6 -4 6 -10 -1 -17z m915 -39 c4 -7 3 -8 -5 -4 -8 5 -11 1 -8 -16 2 -12 2
-17 0 -10 -3 7 -9 10 -14 6 -13 -7 -7 19 6 28 13 10 13 10 21 -4z m-895 -25
c13 -16 12 -17 -3 -4 -10 7 -18 15 -18 17 0 8 8 3 21 -13z m79 -67 c0 -2 -8
-10 -17 -17 -16 -13 -17 -12 -4 4 13 16 21 21 21 13z m567 -151 c0 -8 -4 -12
-9 -9 -5 3 -6 10 -3 15 9 13 12 11 12 -6z m-243 -146 c-5 -9 25 -21 37 -13 5
3 9 0 9 -5 0 -16 -36 -13 -50 3 -6 8 -17 13 -25 10 -7 -3 -15 -2 -18 3 -3 4 8
8 23 8 16 1 27 -2 24 -6z m120 -41 c-3 -4 -9 -8 -15 -8 -5 0 -9 4 -9 8 0 5 7
9 15 9 8 0 12 -4 9 -9z"/>
<path d="M2875 2500 c-3 -5 -1 -10 4 -10 6 0 11 5 11 10 0 6 -2 10 -4 10 -3 0
-8 -4 -11 -10z"/>
<path d="M2825 2457 c0 -31 10 -43 18 -23 3 8 0 22 -7 31 -11 15 -12 14 -11
-8z"/>
<path d="M170 2340 c0 -5 5 -10 11 -10 5 0 7 5 4 10 -3 6 -8 10 -11 10 -2 0
-4 -4 -4 -10z"/>
<path d="M2682 2336 c7 -8 17 -12 22 -9 4 3 2 9 -5 14 -22 13 -31 11 -17 -5z"/>
<path d="M164 2304 c3 -19 26 -43 26 -26 0 7 -6 12 -12 12 -10 0 -10 2 0 9 11
7 11 9 -1 14 -9 3 -14 0 -13 -9z"/>
<path d="M261 2222 c-1 -7 -6 -10 -13 -6 -7 4 -8 3 -4 -5 4 -6 11 -9 16 -6 4
3 10 0 12 -7 3 -7 7 -5 11 6 4 9 3 15 -2 11 -5 -3 -12 1 -14 7 -4 10 -6 10 -6
0z"/>
<path d="M2530 2219 c0 -5 5 -7 10 -4 6 3 10 8 10 11 0 2 -4 4 -10 4 -5 0 -10
-5 -10 -11z"/>
<path d="M2470 2140 c-8 -5 -10 -10 -5 -10 6 0 17 5 25 10 8 5 11 10 5 10 -5
0 -17 -5 -25 -10z"/>
<path d="M416 2077 c3 -10 9 -15 12 -12 3 3 0 11 -7 18 -10 9 -11 8 -5 -6z"/>
<path d="M2316 2022 c-2 -4 -1 -14 4 -22 7 -11 9 -9 7 8 -1 24 -3 26 -11 14z"/>
<path d="M2322 1971 c-9 -6 -9 -10 1 -22 6 -8 11 -12 10 -10 -2 2 2 10 8 17
12 15 -2 26 -19 15z"/>
<path d="M2175 1866 c-17 -12 -17 -13 3 -11 26 2 37 11 24 19 -5 3 -17 -1 -27
-8z"/>
<path d="M640 1860 c-8 -5 -10 -10 -4 -10 6 0 15 -8 20 -19 9 -18 10 -18 29 2
11 11 15 17 8 14 -15 -9 -45 2 -37 14 7 11 3 11 -16 -1z"/>
<path d="M835 1730 c-3 -5 -3 -10 2 -10 4 0 1 -5 -7 -11 -12 -8 -12 -10 -1 -7
8 2 15 12 17 21 3 19 -2 22 -11 7z"/>
<path d="M895 1620 c3 -5 8 -10 11 -10 2 0 4 5 4 10 0 6 -5 10 -11 10 -5 0 -7
-4 -4 -10z"/>
<path d="M1915 1610 c-3 -5 -1 -10 4 -10 6 0 11 5 11 10 0 6 -2 10 -4 10 -3 0
-8 -4 -11 -10z"/>
<path d="M930 1600 c0 -5 5 -10 11 -10 5 0 7 5 4 10 -3 6 -8 10 -11 10 -2 0
-4 -4 -4 -10z"/>
<path d="M1837 1573 c-10 -10 -8 -23 4 -23 5 0 8 4 5 9 -4 5 0 12 6 14 7 3 8
6 2 6 -6 1 -14 -2 -17 -6z"/>
<path d="M978 1549 c-6 -16 9 -49 21 -49 5 0 12 7 15 16 6 15 4 15 -11 3 -15
-12 -16 -12 -11 2 3 9 3 22 -2 29 -6 10 -9 9 -12 -1z"/>
<path d="M1028 1493 c7 -3 16 -2 19 1 4 3 -2 6 -13 5 -11 0 -14 -3 -6 -6z"/>
<path d="M1020 1455 c7 -9 15 -13 18 -10 3 3 11 0 19 -6 7 -6 13 -8 13 -4 0
11 -33 34 -49 35 -11 0 -11 -3 -1 -15z"/>
<path d="M1135 1420 c3 -5 8 -10 11 -10 2 0 4 5 4 10 0 6 -5 10 -11 10 -5 0
-7 -4 -4 -10z"/>
<path d="M1675 1420 c-3 -5 -1 -10 4 -10 6 0 11 5 11 10 0 6 -2 10 -4 10 -3 0
-8 -4 -11 -10z"/>
<path d="M1187 1317 c-3 -8 10 -25 28 -40 30 -24 33 -25 38 -8 3 13 0 18 -12
16 -24 -4 -35 6 -20 17 10 6 7 7 -8 3 -18 -5 -22 -3 -17 9 3 9 4 16 1 16 -3 0
-7 -6 -10 -13z"/>
<path d="M1270 1270 c-6 -11 -8 -20 -6 -20 3 0 10 9 16 20 6 11 8 20 6 20 -3
0 -10 -9 -16 -20z"/>
<path d="M1318 1191 c12 -12 20 -26 17 -31 -3 -5 0 -12 7 -16 7 -4 10 -3 5 1
-4 5 0 20 9 34 9 14 11 21 4 14 -10 -9 -19 -8 -39 4 l-26 17 23 -23z"/>
<path d="M1474 1162 c0 -9 -5 -16 -11 -14 -7 1 -13 -2 -13 -8 0 -5 5 -10 11
-10 5 0 7 -6 3 -12 -4 -7 2 -5 13 5 22 19 26 44 8 51 -7 2 -12 -3 -11 -12z"/>
<path d="M1365 1160 c-3 -5 -1 -10 4 -10 6 0 11 5 11 10 0 6 -2 10 -4 10 -3 0
-8 -4 -11 -10z"/>
</g>
</svg>
